<svg id="Layer_1" data-name="Layer 1" xmlns="http://www.w3.org/2000/svg" viewBox="0 0 666.57 452.43"><defs><style>.cls-1 {
                fill: #ff0d00;
            }

            .cls-2 {
                fill: #fff;
            }

            .cls-3 {
                fill: #1d1d1b;
            }</style></defs><path class="cls-1" d="M0 0H666.57V396.61H0z"/><path class="cls-2" d="M413.7,280.3c-9.46,0-17.34,37.57-25.07,37.21-6.51-.31-1.07-25.92-11-26-6.13,0-8,10.23-10.75,19-.16.51-4.68,18.24-11.54,18.24-4.37,0-8.2-3.49-8.2-13.84,0-4.83-.24-12-6-13.23-10-2.07-7.73,8.22-16.51,6.56-23.76-4.48-41.74,44.31-27.29,50.85,17.33,7.83,30-22.92,35.14-22.07,3.95.64,1.39,13.89,13.82,13,10.14-.69,18.13-21.62,22.08-21.37,3.5.22.45,12.6,9.19,13.06,10.24.53,14.46-16.46,19.13-16.54,1.16,0,1.67.86,1.57,5-.13,5.68-.89,77.71-1,80.05-.22,4.44,1.93,4.81,2.9,4.81.65,0,10.49-.2,12.38-.28s2.22-1.85,2.2-2.94c0-.43,1.37-104.85,1.46-127.45C416.17,280.3,414.42,280.3,413.7,280.3Zm-84.35,43c-2.37,8.51-12,22.51-16.5,22.94-1.34.13-3.29-.58-3.21-3.65.16-7.2,11.4-23.5,16-24.74C328.84,317,330.25,320.08,329.35,323.3ZM709.6,233.87c-18.46,11.66-14.9-31.47-26.14-31.47-12.26,0-15.83,25.57-20.2,26-5.35.52,2-18.75-8.6-18.32-11.68.48-18.22,42.82-26.69,39.54-8.7-3.36-2.46-25.73-12.25-27.36-5.05-.84-6.09,3.19-9.1,5.14-4.5,2.92-12.59-2.16-25.28,12.63-14.36,16.73-18.75,43.74-7.8,45.58,14.74,2.48,28.17-22.68,31.57-25.91,4.75-4.52,2.1,13,14.89,13.28,13.51.27,17.58-22,21.51-21.81,3.37.19-.54,11.7,5.9,12.52,13.94,1.78,21.58-34.77,27.32-34s3.58,22.6,17.4,24c11.72,1.16,19.76-14.85,20.85-17.22S712.18,232.24,709.6,233.87Zm-105.05,11.5c-2.68,7.6-10.4,19.79-15.14,20.64-1.63.29-3.61-1.32-3.48-4.11.3-6.53,11.24-20.39,15.68-21.42C604.64,239.78,605.64,242.27,604.55,245.37Zm-342,105.34c-3.22-1.64-3.38-4.91-3.51-6.46s0-9.74,0-15.16.76-6.4,4.84-9.4c66.79-49.11,78.27-91.4,59.47-118.18-38.56-54.93-171.22,30.54-180.91,37.57-10,7.25-10.84,18.18-11.24,21.55-.28,2.34-.44,15-.43,18.43,0,2.9-.17,5.55,7.11-.45C184.19,240.45,291.19,172.3,311.79,215c10.08,20.9,3.37,52.51-47.24,89.89-4.23,3.12-5.45-.88-5.49-3.5,0-1.91-.07-73.63,0-78.69.1-7.57-6.57-4.77-8.75-3.35-1.38.89-5.62,3.65-9.55,6.18-3.47,2.24-3.2,3.93-3.27,6-.05,1.27.32,79.66.29,85.7,0,5.36,0,7.12-2.6,8.95-1.54,1.1-23.78,14.1-28.23,16.79-3.74,2.26-2.36,5.55-.52,6.39,1.42.66,24.28,11.46,27.88,13.1,4,1.81,3.68,4.46,3.67,5.84s0,26.26.11,39.66c.06,6.74,4.22,3.51,5.84,2.69,1.15-.58,7.61-4.43,11.56-7.22,3.72-2.64,3.47-7.12,3.47-8.94V381c0-5,2.9-5.56,4.68-4.73,1.61.74,52.13,24.87,61.54,29.31,5.88,2.78,10.8.7,12.84-2.77.34-.6,1.94-3.57,3.61-7.36,2.34-5.32-2.24-8.29-5.53-9.89C333.38,384.24,265.78,352.35,262.57,350.71Zm200.65-74.63c-4.91-5.51-14.76-5.42-22.34-.75-10,6.16-12.66,15.79-7.75,21.3s16.66,4.34,23.86-.44C465.22,290.72,468.14,281.59,463.22,276.08ZM538.1,129.16c23.52,23.16-16.56,67.07-26.23,78.37-4.34,5.07-8.37,12.61-1.55,19.84s14.12,14.14,20.05,19.63c7.32,6.79,5.14,19.47.51,26.34-3.08,4.57-10,12.64-17.94,22.8s-15.21,19.49-16,20.52a16.71,16.71,0,0,0-1.2,19.58c8.55,13.27,9.38,13.08,14.83,3.6,9.08-15.78,21.06-30.43,30.18-40.82a181.23,181.23,0,0,0,13.82-17.71c8.26-11.77,9-24.35.71-31.6-11-9.6-23.79-18-34.33-26-6.09-4.64-1.87-10.36,4.64-15.23,23.18-17.35,55.52-46.38,40.68-81.33-14.35-33.8-81.91-7.72-84.65,62.23-1,24.94,2.34,93.94.49,111.2-1.08,10.05,2.74,8.93,6.41,7.41,3.36-1.39,16.26-7.69,15.59-24.13s-2.17-87.75-2.65-95.14C499,150.19,522.82,114.12,538.1,129.16Z" transform="translate(-88.76 -71.6)"/><path class="cls-3" d="M161.18,504.81V514a10.83,10.83,0,0,1-.12,1.4c-.83,4.58-4,7.7-9,7.7H139.93a11.26,11.26,0,0,1-1.47-.13,8.69,8.69,0,0,1-7.63-9V501.82a11.21,11.21,0,0,1,.12-1.46c.77-4.59,4-7.71,9-7.71h12.15a11.26,11.26,0,0,1,1.47.13,8.68,8.68,0,0,1,7.63,9h-6a2.76,2.76,0,0,0-3.06-3.06H139.93a2.78,2.78,0,0,0-3.06,3.06V514a2.74,2.74,0,0,0,3.06,3h12.15a2.76,2.76,0,0,0,3.06-3v-3.06H146v-6.11Z" transform="translate(-88.76 -71.6)"/><path class="cls-3" d="M103.49 433.21 103.49 439.32 88.34 439.32 88.34 445.37 109.6 445.37 109.6 451.48 82.23 451.48 82.23 421.06 109.6 421.06 109.6 427.17 88.34 427.17 88.34 433.21 103.49 433.21 103.49 433.21z"/><path class="cls-3" d="M467.7 433.21 467.7 439.32 452.56 439.32 452.56 445.37 473.81 445.37 473.81 451.48 446.44 451.48 446.44 421.06 473.81 421.06 473.81 427.17 452.56 427.17 452.56 433.21 467.7 433.21 467.7 433.21z"/><path class="cls-3" d="M119.01 421.06 130.02 421.06 142.17 445.37 143.32 445.37 143.32 421.06 149.43 421.06 149.43 451.48 138.42 451.48 126.26 427.17 125.12 427.17 125.12 451.48 119.01 451.48 119.01 421.06 119.01 421.06z"/><path class="cls-3" d="M278.36,514a10.83,10.83,0,0,1-.12,1.4c-.83,4.58-4,7.7-9,7.7H257.11a11.26,11.26,0,0,1-1.47-.13,8.71,8.71,0,0,1-7.64-9V492.65h6.05V514a2.74,2.74,0,0,0,3.06,3h12.15a2.76,2.76,0,0,0,3.06-3V492.65h6V514Z" transform="translate(-88.76 -71.6)"/><path class="cls-3" d="M199.41 421.05H205.52V451.47H199.41z"/><path class="cls-3" d="M215.74 421.06 226.75 421.06 238.91 445.37 240.05 445.37 240.05 421.06 246.16 421.06 246.16 451.48 235.15 451.48 223 427.17 221.85 427.17 221.85 451.48 215.74 451.48 215.74 421.06 215.74 421.06z"/><path class="cls-3" d="M277.64 433.21 277.64 439.32 262.5 439.32 262.5 445.37 283.75 445.37 283.75 451.48 256.38 451.48 256.38 421.06 283.75 421.06 283.75 427.17 262.5 427.17 262.5 433.21 277.64 433.21 277.64 433.21z"/><path class="cls-3" d="M408.54,510.92c-5.79,0-7.64-5.66-7.64-9.1s1.85-9.17,7.64-9.17h15.15c5.79,0,7.63,5.61,7.63,9.17l-6.11-.06c0-2.55-1.14-3-1.52-3H408.54c-.38,0-1.53.45-1.53,3.06s1.15,3,1.53,3h15.15c5.72,0,7.63,5.67,7.63,9.17s-1.91,9.1-7.63,9.1H408.47c-5.72,0-7.57-5.67-7.57-9.1l6.11-.07c0,2.61,1.15,3.06,1.46,3.06h15.22c.38,0,1.52-.45,1.52-3s-1.14-3.06-1.52-3.06Z" transform="translate(-88.76 -71.6)"/><path class="cls-3" d="M526.53,515.44a8.72,8.72,0,0,1-9,7.64H505.39a11.19,11.19,0,0,1-1.46-.13,8.7,8.7,0,0,1-7.7-9V501.82s.07-.57.19-1.46c.83-4.59,4-7.71,9-7.71h12.16a11.39,11.39,0,0,1,1.47.13,8.75,8.75,0,0,1,7.64,9h-6a2.82,2.82,0,0,0-3.06-3.06H505.39a2.78,2.78,0,0,0-3.05,3.06V514a2.78,2.78,0,0,0,3.05,3h12.16c2,0,2.93-1.27,3.06-3h6a11.19,11.19,0,0,1-.13,1.46Z" transform="translate(-88.76 -71.6)"/><path class="cls-3" d="M592.52,504.49l-2.73,1.4-2.68-5.47c3.12-1.53,7.07-3.37,7.07-7.77h6.11v30.43h-6.11v-19.6a8.56,8.56,0,0,1-1.66,1Z" transform="translate(-88.76 -71.6)"/><path class="cls-3" d="M612.07,501.82c0-3.5,1.9-9.17,7.63-9.17h13.69c5.72,0,7.63,5.67,7.63,9.17V514s-.06.57-.18,1.4c-.83,4.58-4,7.7-9,7.7H621.23a8.86,8.86,0,0,1-9.1-9.1h6a2.93,2.93,0,0,0,3.06,3h10.63a2.76,2.76,0,0,0,3-3v-3.19a9.58,9.58,0,0,1-1.52.13H619.7c-5.73,0-7.63-5.66-7.63-9.1Zm21.32,3c.38,0,1.52-.44,1.52-3s-1.14-3.06-1.52-3.06H619.7c-.38,0-1.53.45-1.53,3.06s1.15,3,1.53,3Z" transform="translate(-88.76 -71.6)"/><path class="cls-3" d="M679.05,514c0,3.43-1.85,9.1-7.64,9.1H659.26a8.91,8.91,0,0,1-9.11-9.1h6.11v.44c.32,1.66,1.09,2.55,3,2.55h12.15c.38,0,1.53-.45,1.53-3s-1.15-3.06-1.53-3.06H659.32v-6.11h12.16c.31,0,1.52-.44,1.52-3s-1.21-3.06-1.52-3.06H659.32c-2.1,0-3,1.21-3.06,3.06h-6.11a10.37,10.37,0,0,1,.13-1.46,8.73,8.73,0,0,1,9-7.71h12.16c5.72,0,7.57,5.67,7.57,9.17a11.26,11.26,0,0,1-1.78,6.05,11.43,11.43,0,0,1,1.78,6.11Z" transform="translate(-88.76 -71.6)"/><path class="cls-3" d="M696.38,524l-5.47-2.73,1.4-2.74s3.06-6.17,6.94-12.41a79.32,79.32,0,0,1,5.22-7.51H685.88v-6.05h27.37v6.05c-4.77,2-14.45,20.49-16.87,25.39Z" transform="translate(-88.76 -71.6)"/><path class="cls-3" d="M351.75 421.05H357.86V451.47H351.75z"/><path class="cls-3" d="M368.08 421.06 379.09 421.06 391.25 445.37 392.39 445.37 392.39 421.06 398.5 421.06 398.5 451.48 387.49 451.48 375.34 427.17 374.19 427.17 374.19 451.48 368.08 451.48 368.08 421.06 368.08 421.06z"/></svg>